<svg width="155.000000" height="28.240906" viewBox="0 0 155 28.2409" fill="none" xmlns="http://www.w3.org/2000/svg" xmlns:xlink="http://www.w3.org/1999/xlink">
	<desc>
			Created with Pixso.
	</desc>
	<defs/>
	<path id="Vector" d="M10.44 23.96C7.46 26.95 2.4 26.94 0.99 22.96C0.71 22.18 0.49 21.38 0.33 20.56C-0.34 17.22 0 13.76 1.3 10.62C2.61 7.47 4.81 4.79 7.64 2.89C10.47 1 13.8 0 17.2 0C20.61 0 23.93 1 26.76 2.89C29.59 4.79 31.8 7.47 33.1 10.62C34.4 13.76 34.74 17.22 34.08 20.56C33.92 21.38 33.7 22.18 33.42 22.96C32.01 26.94 26.95 26.95 23.96 23.96L19.35 19.35C18.91 18.91 18.96 18.19 19.08 17.58C19.15 17.2 19.12 16.82 18.97 16.47C18.83 16.12 18.58 15.82 18.27 15.61C17.95 15.4 17.58 15.29 17.2 15.29C16.82 15.29 16.45 15.4 16.14 15.61C15.82 15.82 15.58 16.12 15.43 16.47C15.29 16.82 15.25 17.2 15.33 17.58C15.45 18.19 15.49 18.91 15.05 19.35L10.44 23.96Z" fill="#F1F1F1" fill-opacity="1.000000" fill-rule="nonzero"/>
	<path id="Vector" d="M48.41 19.83L53.03 19.83L53.03 22.56L44.88 22.56L44.88 8.06L48.41 8.06L48.41 19.83Z" fill="#F1F1F1" fill-opacity="1.000000" fill-rule="nonzero"/>
	<path id="Vector" d="M59.34 22.72C58.22 22.72 57.2 22.48 56.29 22C55.39 21.52 54.68 20.83 54.16 19.94C53.65 19.04 53.4 17.99 53.4 16.8C53.4 15.61 53.66 14.57 54.18 13.68C54.71 12.77 55.42 12.07 56.33 11.59C57.24 11.11 58.26 10.87 59.39 10.87C60.51 10.87 61.53 11.11 62.44 11.59C63.35 12.07 64.07 12.77 64.59 13.68C65.11 14.57 65.37 15.61 65.37 16.8C65.37 17.98 65.11 19.03 64.57 19.94C64.05 20.83 63.32 21.52 62.4 22C61.49 22.48 60.47 22.72 59.34 22.72ZM59.34 19.67C60.02 19.67 60.59 19.42 61.06 18.92C61.54 18.43 61.78 17.72 61.78 16.8C61.78 15.87 61.55 15.17 61.08 14.67C60.62 14.17 60.06 13.93 59.39 13.93C58.7 13.93 58.13 14.17 57.67 14.67C57.22 15.15 56.99 15.86 56.99 16.8C56.99 17.72 57.21 18.43 57.65 18.92C58.11 19.42 58.67 19.67 59.34 19.67Z" fill="#F1F1F1" fill-opacity="1.000000" fill-rule="nonzero"/>
	<path id="Vector" d="M71.01 10.87C71.82 10.87 72.53 11.04 73.13 11.37C73.75 11.7 74.23 12.13 74.56 12.67L74.56 11.04L78.09 11.04L78.09 22.54C78.09 23.6 77.87 24.55 77.45 25.41C77.03 26.27 76.39 26.96 75.53 27.47C74.67 27.98 73.61 28.24 72.33 28.24C70.62 28.24 69.24 27.83 68.18 27.02C67.12 26.22 66.51 25.13 66.36 23.76L69.85 23.76C69.96 24.2 70.22 24.54 70.63 24.79C71.05 25.05 71.56 25.18 72.16 25.18C72.89 25.18 73.47 24.97 73.9 24.54C74.34 24.13 74.56 23.46 74.56 22.54L74.56 20.91C74.21 21.44 73.74 21.88 73.13 22.23C72.53 22.56 71.82 22.72 71.01 22.72C70.06 22.72 69.19 22.48 68.42 22C67.65 21.5 67.04 20.81 66.59 19.91C66.15 19.01 65.93 17.96 65.93 16.78C65.93 15.59 66.15 14.55 66.59 13.66C67.04 12.76 67.65 12.07 68.42 11.59C69.19 11.11 70.06 10.87 71.01 10.87ZM74.56 16.8C74.56 15.92 74.31 15.22 73.81 14.71C73.33 14.2 72.74 13.95 72.04 13.95C71.34 13.95 70.74 14.2 70.24 14.71C69.76 15.21 69.52 15.89 69.52 16.78C69.52 17.66 69.76 18.36 70.24 18.88C70.74 19.39 71.34 19.65 72.04 19.65C72.74 19.65 73.33 19.39 73.81 18.88C74.31 18.37 74.56 17.68 74.56 16.8Z" fill="#F1F1F1" fill-opacity="1.000000" fill-rule="nonzero"/>
	<path id="Vector" d="M85.27 22.72C84.14 22.72 83.12 22.48 82.21 22C81.32 21.52 80.61 20.83 80.08 19.94C79.58 19.04 79.32 17.99 79.32 16.8C79.32 15.61 79.58 14.57 80.11 13.68C80.63 12.77 81.34 12.07 82.25 11.59C83.16 11.11 84.18 10.87 85.31 10.87C86.44 10.87 87.46 11.11 88.37 11.59C89.27 12.07 89.99 12.77 90.51 13.68C91.04 14.57 91.3 15.61 91.3 16.8C91.3 17.98 91.03 19.03 90.49 19.94C89.97 20.83 89.25 21.52 88.32 22C87.42 22.48 86.4 22.72 85.27 22.72ZM85.27 19.67C85.94 19.67 86.51 19.42 86.98 18.92C87.46 18.43 87.7 17.72 87.7 16.8C87.7 15.87 87.47 15.17 87 14.67C86.55 14.17 85.98 13.93 85.31 13.93C84.62 13.93 84.05 14.17 83.6 14.67C83.14 15.15 82.91 15.86 82.91 16.8C82.91 17.72 83.13 18.43 83.57 18.92C84.03 19.42 84.59 19.67 85.27 19.67Z" fill="#F1F1F1" fill-opacity="1.000000" fill-rule="nonzero"/>
	<path id="Vector" d="M94.33 9.84C93.71 9.84 93.2 9.66 92.8 9.3C92.41 8.93 92.22 8.47 92.22 7.94C92.22 7.39 92.41 6.93 92.8 6.58C93.2 6.2 93.71 6.02 94.33 6.02C94.93 6.02 95.43 6.2 95.81 6.58C96.21 6.93 96.41 7.39 96.41 7.94C96.41 8.47 96.21 8.93 95.81 9.3C95.43 9.66 94.93 9.84 94.33 9.84ZM96.08 11.04L96.08 22.56L92.55 22.56L92.55 11.04L96.08 11.04Z" fill="#F1F1F1" fill-opacity="1.000000" fill-rule="nonzero"/>
	<path id="Vector" d="M101.55 12.67C101.9 12.13 102.37 11.7 102.98 11.37C103.58 11.04 104.29 10.87 105.1 10.87C106.05 10.87 106.91 11.11 107.69 11.59C108.46 12.07 109.06 12.76 109.5 13.66C109.96 14.55 110.18 15.59 110.18 16.78C110.18 17.96 109.96 19.01 109.5 19.91C109.06 20.81 108.46 21.5 107.69 22C106.91 22.48 106.05 22.72 105.1 22.72C104.31 22.72 103.6 22.56 102.98 22.23C102.37 21.9 101.9 21.47 101.55 20.95L101.55 28.05L98.02 28.05L98.02 11.04L101.55 11.04L101.55 12.67ZM106.59 16.78C106.59 15.89 106.34 15.21 105.85 14.71C105.37 14.2 104.77 13.95 104.05 13.95C103.35 13.95 102.75 14.2 102.25 14.71C101.77 15.22 101.53 15.92 101.53 16.8C101.53 17.68 101.77 18.37 102.25 18.88C102.75 19.39 103.35 19.65 104.05 19.65C104.75 19.65 105.35 19.39 105.85 18.88C106.34 18.36 106.59 17.66 106.59 16.78Z" fill="#F1F1F1" fill-opacity="1.000000" fill-rule="nonzero"/>
	<path id="Vector" d="M116.1 22.72C115.1 22.72 114.2 22.55 113.42 22.21C112.64 21.86 112.02 21.39 111.56 20.8C111.11 20.2 110.85 19.52 110.8 18.78L114.29 18.78C114.33 19.18 114.51 19.5 114.84 19.75C115.18 20 115.58 20.12 116.06 20.12C116.5 20.12 116.84 20.04 117.07 19.87C117.32 19.69 117.45 19.47 117.45 19.19C117.45 18.86 117.27 18.62 116.93 18.47C116.59 18.3 116.03 18.12 115.26 17.93C114.43 17.74 113.74 17.54 113.19 17.33C112.64 17.11 112.17 16.78 111.77 16.32C111.37 15.85 111.17 15.23 111.17 14.44C111.17 13.78 111.35 13.18 111.71 12.65C112.08 12.1 112.61 11.66 113.32 11.35C114.03 11.03 114.88 10.87 115.86 10.87C117.3 10.87 118.44 11.23 119.26 11.94C120.1 12.66 120.59 13.61 120.71 14.79L117.45 14.79C117.39 14.39 117.21 14.08 116.91 13.84C116.62 13.61 116.24 13.49 115.75 13.49C115.34 13.49 115.02 13.58 114.8 13.74C114.58 13.89 114.47 14.11 114.47 14.38C114.47 14.71 114.65 14.96 114.99 15.12C115.35 15.29 115.9 15.45 116.64 15.62C117.49 15.84 118.19 16.06 118.73 16.28C119.26 16.49 119.73 16.83 120.13 17.31C120.54 17.78 120.76 18.41 120.77 19.21C120.77 19.89 120.58 20.49 120.19 21.03C119.82 21.55 119.28 21.97 118.56 22.27C117.86 22.57 117.04 22.72 116.1 22.72Z" fill="#F1F1F1" fill-opacity="1.000000" fill-rule="nonzero"/>
	<path id="Vector" d="M133.69 11.04L133.69 22.56L130.16 22.56L130.16 20.99C129.8 21.5 129.31 21.91 128.69 22.23C128.09 22.53 127.41 22.68 126.67 22.68C125.79 22.68 125.01 22.49 124.34 22.1C123.66 21.7 123.14 21.13 122.77 20.39C122.39 19.65 122.21 18.77 122.21 17.77L122.21 11.04L125.72 11.04L125.72 17.29C125.72 18.06 125.92 18.66 126.32 19.09C126.72 19.52 127.25 19.73 127.93 19.73C128.62 19.73 129.16 19.52 129.56 19.09C129.96 18.66 130.16 18.06 130.16 17.29L130.16 11.04L133.69 11.04Z" fill="#F1F1F1" fill-opacity="1.000000" fill-rule="nonzero"/>
	<path id="Vector" d="M150.31 10.91C151.74 10.91 152.88 11.35 153.72 12.21C154.57 13.08 155 14.28 155 15.83L155 22.56L151.49 22.56L151.49 16.3C151.49 15.56 151.28 14.99 150.89 14.59C150.5 14.17 149.96 13.97 149.28 13.97C148.59 13.97 148.04 14.17 147.64 14.59C147.26 14.99 147.07 15.56 147.07 16.3L147.07 22.56L143.56 22.56L143.56 16.3C143.56 15.56 143.36 14.99 142.96 14.59C142.57 14.17 142.03 13.97 141.35 13.97C140.66 13.97 140.11 14.17 139.72 14.59C139.33 14.99 139.14 15.56 139.14 16.3L139.14 22.56L135.61 22.56L135.61 11.04L139.14 11.04L139.14 12.48C139.5 12 139.96 11.62 140.54 11.35C141.12 11.06 141.77 10.91 142.5 10.91C143.37 10.91 144.14 11.1 144.82 11.47C145.5 11.84 146.04 12.37 146.43 13.06C146.83 12.43 147.37 11.91 148.06 11.51C148.75 11.11 149.5 10.91 150.31 10.91Z" fill="#F1F1F1" fill-opacity="1.000000" fill-rule="nonzero"/>
</svg>