<svg width="21.875000" height="25.000000" viewBox="0 0 21.875 25" fill="none" xmlns="http://www.w3.org/2000/svg" xmlns:xlink="http://www.w3.org/1999/xlink">
	<desc>
			Created with Pixso.
	</desc>
	<defs/>
	<path id="Vector" d="M10.93 25C12.66 25 14.06 23.6 14.06 21.87L7.81 21.87C7.81 23.6 9.21 25 10.93 25ZM21.45 17.68C20.51 16.67 18.74 15.15 18.74 10.15C18.74 6.36 16.08 3.32 12.49 2.58L12.49 1.56C12.49 0.69 11.79 0 10.93 0C10.07 0 9.37 0.69 9.37 1.56L9.37 2.58C5.78 3.32 3.12 6.36 3.12 10.15C3.12 15.15 1.36 16.67 0.42 17.68C0.12 18 -0.01 18.38 0 18.75C0 19.55 0.63 20.31 1.56 20.31L20.3 20.31C21.24 20.31 21.87 19.55 21.87 18.75C21.87 18.38 21.74 18 21.45 17.68Z" fill="#F1F1F1" fill-opacity="1.000000" fill-rule="nonzero"/>
</svg>