<svg width="25.000000" height="20.000000" viewBox="0 0 25 20" fill="none" xmlns="http://www.w3.org/2000/svg" xmlns:xlink="http://www.w3.org/1999/xlink">
	<desc>
			Created with Pixso.
	</desc>
	<defs/>
	<path id="mail" d="M2.5 20C1.81 20 1.22 19.75 0.73 19.26C0.24 18.77 0 18.18 0 17.5L0 2.5C0 1.81 0.24 1.22 0.73 0.73C1.22 0.24 1.81 0 2.5 0L22.5 0C23.18 0 23.77 0.24 24.26 0.73C24.75 1.22 25 1.81 25 2.5L25 17.5C25 18.18 24.75 18.77 24.26 19.26C23.77 19.75 23.18 20 22.5 20L2.5 20ZM12.5 11.25L22.5 5L22.5 2.5L12.5 8.75L2.5 2.5L2.5 5L12.5 11.25Z" fill="#F1F1F1" fill-opacity="1.000000" fill-rule="nonzero"/>
</svg>