<svg width="23.999878" height="24.000000" viewBox="0 0 23.9999 24" fill="none" xmlns="http://www.w3.org/2000/svg" xmlns:xlink="http://www.w3.org/1999/xlink">
	<desc>
			Created with Pixso.
	</desc>
	<defs/>
	<path id="Vector" d="M23.33 6.65L21.17 8.81C20.95 9.03 20.6 9.03 20.38 8.81L15.17 3.61C14.95 3.39 14.95 3.03 15.17 2.81L17.33 0.65C18.21 -0.22 19.64 -0.22 20.52 0.65L23.33 3.47C24.22 4.35 24.22 5.77 23.33 6.65ZM13.32 4.67L1.01 16.98L0.01 22.68C-0.12 23.44 0.55 24.11 1.32 23.98L7.01 22.98L19.32 10.67C19.54 10.45 19.54 10.09 19.32 9.87L14.12 4.67C13.89 4.45 13.54 4.45 13.32 4.67ZM5.81 15.92C5.55 15.67 5.55 15.25 5.81 15L13.03 7.78C13.29 7.52 13.7 7.52 13.96 7.78C14.22 8.04 14.22 8.45 13.96 8.71L6.74 15.92C6.48 16.18 6.07 16.18 5.81 15.92ZM4.12 19.87L6.37 19.87L6.37 21.57L3.35 22.1L1.89 20.64L2.42 17.62L4.12 17.62L4.12 19.87Z" fill="#F1F1F1" fill-opacity="1.000000" fill-rule="nonzero"/>
</svg>