<svg width="24.998169" height="25.002441" viewBox="0 0 24.9982 25.0024" fill="none" xmlns="http://www.w3.org/2000/svg" xmlns:xlink="http://www.w3.org/1999/xlink">
	<desc>
			Created with Pixso.
	</desc>
	<defs/>
	<path id="Vector" d="M24.65 21.61L19.79 16.74C19.57 16.52 19.27 16.4 18.95 16.4L18.16 16.4C19.51 14.68 20.31 12.51 20.31 10.15C20.31 4.54 15.76 0 10.15 0C4.54 0 0 4.54 0 10.15C0 15.76 4.54 20.31 10.15 20.31C12.51 20.31 14.68 19.51 16.4 18.16L16.4 18.95C16.4 19.27 16.52 19.57 16.74 19.79L21.61 24.65C22.07 25.11 22.81 25.11 23.27 24.65L24.65 23.27C25.11 22.81 25.11 22.07 24.65 21.61ZM10.15 16.4C6.7 16.4 3.9 13.61 3.9 10.15C3.9 6.7 6.69 3.9 10.15 3.9C13.6 3.9 16.4 6.69 16.4 10.15C16.4 13.6 13.61 16.4 10.15 16.4Z" fill="#F1F1F1" fill-opacity="1.000000" fill-rule="nonzero"/>
</svg>