<svg width="25.311401" height="4.799988" viewBox="0 0 25.3114 4.79999" fill="none" xmlns="http://www.w3.org/2000/svg" xmlns:xlink="http://www.w3.org/1999/xlink">
	<desc>
			Created with Pixso.
	</desc>
	<defs/>
	<path id="..." d="M2.37 4.79Q1.37 4.79 0.77 4.31Q0.69 4.24 0.62 4.17Q0.56 4.12 0.51 4.05Q0 3.44 0 2.39Q0 1.64 0.33 1.08Q0.46 0.86 0.64 0.67Q0.86 0.45 1.12 0.3Q1.66 0 2.37 0C3.12 0 3.71 0.2 4.12 0.62Q4.18 0.67 4.23 0.74L4.23 0.74Q4.75 1.35 4.75 2.39Q4.75 3.11 4.44 3.65Q4.29 3.91 4.07 4.12Q3.88 4.33 3.65 4.47Q3.11 4.79 2.37 4.79ZM12.65 4.79Q11.65 4.79 11.05 4.31Q10.97 4.24 10.9 4.17Q10.84 4.12 10.79 4.05Q10.27 3.44 10.27 2.39Q10.27 1.64 10.61 1.08Q10.74 0.86 10.92 0.67Q11.14 0.45 11.4 0.3L11.4 0.3Q11.94 0 12.65 0C13.4 0 13.99 0.2 14.4 0.62Q14.46 0.67 14.51 0.74Q15.03 1.35 15.03 2.39Q15.03 3.11 14.72 3.65Q14.57 3.91 14.35 4.12Q14.16 4.33 13.92 4.47Q13.39 4.79 12.65 4.79ZM21.18 4.17C21.59 4.59 22.18 4.79 22.93 4.79C23.63 4.79 24.2 4.57 24.63 4.12C25.08 3.67 25.31 3.1 25.31 2.39C25.31 1.63 25.1 1.04 24.68 0.62C24.27 0.2 23.68 0 22.93 0Q22.22 0 21.68 0.3Q21.42 0.45 21.2 0.67Q21.02 0.86 20.89 1.08Q20.55 1.64 20.55 2.39Q20.55 3.44 21.07 4.05Q21.12 4.12 21.18 4.17Z" fill="#FFFFFF" fill-opacity="1.000000" fill-rule="evenodd"/>
</svg>